<svg width="14" height="14" xmlns="http://www.w3.org/2000/svg" xmlns:xlink="http://www.w3.org/1999/xlink"><defs><path id="a" d="M0 0h16v16H0z"/></defs><g transform="translate(-1 -1)" fill="none" fill-rule="evenodd"><mask id="b" fill="#fff"><use xlink:href="#a"/></mask><path d="M1 6.348L4.268 9.7a.663.663 0 0 1 .177.57L3.674 15l4.04-2.234c.179-.1.393-.1.572 0L12.326 15l-.771-4.731a.662.662 0 0 1 .177-.57L15 6.35l-4.517-.691a.62.62 0 0 1-.463-.354L8 1 5.98 5.304a.62.62 0 0 1-.463.354L1 6.348z" fill="#FFF" mask="url(#b)"/></g></svg>