<svg width="25" height="25" viewBox="0 0 25 25" fill="none" xmlns="http://www.w3.org/2000/svg">
<path fill-rule="evenodd" clip-rule="evenodd" d="M12.3939 11.8965C11.0124 11.8965 9.88889 10.7753 9.88889 9.39655C9.88889 8.01779 11.0124 6.89655 12.3939 6.89655C13.7754 6.89655 14.8989 8.01779 14.8989 9.39655C14.8989 10.7753 13.7754 11.8965 12.3939 11.8965Z" stroke="#D12420" stroke-linecap="square"/>
<path fill-rule="evenodd" clip-rule="evenodd" d="M12.149 23.7523L5.92575 12.803C5.30544 11.6807 5 10.4919 5 9.29648C5 5.27264 8.37065 2 12.515 2C16.6594 2 20.03 5.27264 20.03 9.29648C20.03 10.4932 19.7232 11.682 19.1419 12.7363L12.881 23.7523C12.807 23.8816 12.667 23.96 12.515 23.96C12.363 23.96 12.2217 23.8816 12.149 23.7523Z" stroke="#D12420"/>
</svg>
