<svg width="25" height="25" viewBox="0 0 25 25" fill="none" xmlns="http://www.w3.org/2000/svg">
<path fill-rule="evenodd" clip-rule="evenodd" d="M23.2603 24C23.071 24 22.8817 23.9276 22.7368 23.7841L15.2163 16.2627C14.9279 15.9729 14.9279 15.5057 15.2163 15.2173C15.5046 14.9276 15.9733 14.9276 16.2617 15.2173L23.7837 22.7373C24.0721 23.0271 24.0721 23.4943 23.7837 23.7841C23.6388 23.9276 23.4496 24 23.2603 24Z" fill="#D12420"/>
<path fill-rule="evenodd" clip-rule="evenodd" d="M10 3.28226C6.29556 3.28226 3.28226 6.29556 3.28226 9.99872C3.28226 13.7032 6.29556 16.7177 10 16.7177C13.7044 16.7177 16.7177 13.7032 16.7177 9.99872C16.7177 6.29556 13.7044 3.28226 10 3.28226ZM10 18C5.58904 18 2 14.411 2 9.99872C2 5.58904 5.58904 2 10 2C14.411 2 18 5.58904 18 9.99872C18 14.411 14.411 18 10 18Z" fill="#D12420"/>
</svg>
