<svg width="25" height="25" viewBox="0 0 25 25" fill="none" xmlns="http://www.w3.org/2000/svg">
<path fill-rule="evenodd" clip-rule="evenodd" d="M1.30769 21.4615H15.6923V4.53846H1.30769V21.4615ZM16.3462 23H0.653846C0.292923 23 0 22.6554 0 22.2308V3.76923C0 3.34462 0.292923 3 0.653846 3H16.3462C16.7071 3 17 3.34462 17 3.76923V22.2308C17 22.6554 16.7071 23 16.3462 23Z" fill="#63666A"/>
<path fill-rule="evenodd" clip-rule="evenodd" d="M12.3571 4C12.0023 4 11.7143 3.776 11.7143 3.5C11.7143 2.121 10.2717 1 8.5 1C6.72829 1 5.28571 2.121 5.28571 3.5C5.28571 3.776 4.99771 4 4.64286 4C4.288 4 4 3.776 4 3.5C4 1.57 6.01857 0 8.5 0C10.9814 0 13 1.57 13 3.5C13 3.776 12.712 4 12.3571 4Z" fill="#63666A"/>
<path fill-rule="evenodd" clip-rule="evenodd" d="M5 17H12V9H5V17Z" fill="#D12420"/>
</svg>
